# Blender v2.78 (sub 0) OBJ File: 'rock.blend'
# www.blender.org
mtllib rock.mtl
o Icosphere
v 0.393851 -0.135162 -1.791267
v 1.457640 -0.107534 -1.299156
v 0.098947 -0.107534 -0.752697
v -0.711904 -0.107530 -1.824882
v 0.098947 -0.107534 -2.857300
v 1.098942 -0.126509 -2.641391
v 0.651723 0.346455 -1.055909
v -0.348272 0.346455 -1.299156
v -0.170046 0.346455 -2.350607
v 0.651723 0.346455 -2.562251
v 1.269761 0.346451 -1.824882
v 0.375335 0.668814 -1.824882
v 0.212879 -0.138672 -1.324886
v 0.800658 -0.126495 -1.515870
v 0.638204 -0.122906 -0.801410
v 1.458340 -0.122905 -1.824882
v 0.800658 -0.116144 -2.133893
v -0.150395 -0.105063 -1.824882
v -0.312854 -0.122905 -1.024671
v 0.212879 -0.138674 -2.324877
v -0.312854 -0.122905 -2.582849
v 0.638204 -0.122906 -2.902316
v 1.326393 0.207206 -1.515869
v 1.326393 0.207206 -2.133894
v 0.375335 0.207206 -0.824882
v 0.920900 0.207206 -1.165110
v -0.575723 0.207206 -1.515869
v -0.212451 0.207206 -1.015865
v -0.212451 0.207206 -2.633898
v -0.575723 0.207206 -2.133894
v 0.963121 0.207206 -2.633898
v 0.375335 0.207206 -2.622401
v 0.802119 0.424972 -1.324885
v 0.112466 0.424973 -1.322260
v -0.475313 0.424971 -1.824882
v 0.112466 0.424973 -2.514078
v 0.835360 0.424972 -2.324878
v 0.537790 0.582329 -1.324886
v 0.901065 0.503137 -1.824882
v -0.049988 0.582329 -1.515870
v -0.049988 0.455191 -2.133893
v 0.537790 0.582329 -2.324877
v -6.317809 -0.233566 -4.048317
v -5.254020 -0.205938 -3.556206
v -6.612713 -0.205938 -3.009747
v -7.423563 -0.205934 -4.081932
v -6.612713 -0.205938 -5.114350
v -5.612718 -0.224913 -4.898441
v -6.059937 0.248051 -3.312959
v -7.059932 0.248051 -3.556206
v -6.881705 0.248051 -4.607657
v -6.059937 0.248051 -4.819301
v -5.441898 0.248047 -4.081932
v -6.336325 0.570410 -4.081932
v -6.498780 -0.237076 -3.581936
v -5.911002 -0.224899 -3.772920
v -6.073456 -0.221310 -3.058460
v -5.253319 -0.221309 -4.081932
v -5.911002 -0.214548 -4.390943
v -6.862054 -0.203467 -4.081932
v -7.024514 -0.221309 -3.281721
v -6.498780 -0.237078 -4.581927
v -7.024514 -0.221309 -4.839899
v -6.073456 -0.221310 -5.159366
v -5.385267 0.108802 -3.772919
v -5.385267 0.108802 -4.390944
v -6.336325 0.108802 -3.081932
v -5.790760 0.108802 -3.422160
v -7.287383 0.108802 -3.772919
v -6.924110 0.108802 -3.272915
v -6.924110 0.108802 -4.890948
v -7.287383 0.108802 -4.390944
v -5.748539 0.108802 -4.890948
v -6.336325 0.108802 -4.879451
v -5.909541 0.326568 -3.581935
v -6.599194 0.326569 -3.579310
v -7.186973 0.326568 -4.081932
v -6.599194 0.326569 -4.771128
v -5.876299 0.326568 -4.581928
v -6.173869 0.483925 -3.581936
v -5.810595 0.404733 -4.081932
v -6.761647 0.483925 -3.772920
v -6.761647 0.356787 -4.390943
v -6.173869 0.483925 -4.581927
v 2.788029 -0.084417 3.093694
v 3.851818 -0.056788 3.585805
v 2.493125 -0.056789 4.132265
v 1.682274 -0.056784 3.060080
v 2.493125 -0.056789 2.027661
v 3.493120 -0.075763 2.243570
v 3.045901 0.397201 3.829052
v 2.045906 0.397201 3.585805
v 2.224132 0.397201 2.534354
v 3.045901 0.397201 2.322711
v 3.663939 0.397197 3.060080
v 2.769513 0.719559 3.060080
v 2.607057 -0.087926 3.560075
v 3.194836 -0.075750 3.369091
v 3.032382 -0.072161 4.083551
v 3.852518 -0.072159 3.060080
v 3.194836 -0.065398 2.751068
v 2.243783 -0.054318 3.060080
v 2.081323 -0.072159 3.860290
v 2.607057 -0.087928 2.560084
v 2.081323 -0.072159 2.302113
v 3.032382 -0.072161 1.982646
v 3.720571 0.257952 3.369092
v 3.720571 0.257952 2.751067
v 2.769513 0.257952 4.060080
v 3.315078 0.257952 3.719851
v 1.818455 0.257952 3.369092
v 2.181727 0.257952 3.869096
v 2.181727 0.257952 2.251063
v 1.818455 0.257952 2.751067
v 3.357299 0.257952 2.251063
v 2.769513 0.257952 2.262560
v 3.196297 0.475717 3.560077
v 2.506644 0.475719 3.562701
v 1.918865 0.475717 3.060080
v 2.506644 0.475719 2.370883
v 3.229538 0.475717 2.560082
v 2.931968 0.633075 3.560075
v 3.295243 0.553883 3.060080
v 2.344190 0.633075 3.369091
v 2.344190 0.505936 2.751068
v 2.931968 0.633075 2.560084
v -3.923630 -0.182821 0.836644
v -2.859842 -0.155192 1.328755
v -4.218535 -0.155193 1.875215
v -5.029385 -0.155188 0.803030
v -4.218535 -0.155193 -0.229389
v -3.218539 -0.174167 -0.013480
v -3.665758 0.298797 1.572002
v -4.665754 0.298797 1.328755
v -4.487527 0.298797 0.277304
v -3.665758 0.298797 0.065660
v -3.047720 0.298793 0.803030
v -3.942147 0.621155 0.803030
v -4.104602 -0.186330 1.303025
v -3.516824 -0.174154 1.112041
v -3.679278 -0.170565 1.826501
v -2.859141 -0.170563 0.803030
v -3.516824 -0.163802 0.494018
v -4.467876 -0.152722 0.803030
v -4.630336 -0.170564 1.603240
v -4.104602 -0.186332 0.303034
v -4.630336 -0.170564 0.045063
v -3.679278 -0.170565 -0.274405
v -2.991089 0.159548 1.112042
v -2.991089 0.159548 0.494017
v -3.942147 0.159548 1.803030
v -3.396581 0.159548 1.462801
v -4.893205 0.159548 1.112042
v -4.529932 0.159548 1.612046
v -4.529932 0.159548 -0.005987
v -4.893205 0.159548 0.494017
v -3.354361 0.159548 -0.005987
v -3.942147 0.159548 0.005510
v -3.515363 0.377313 1.303026
v -4.205016 0.377315 1.305651
v -4.792795 0.377313 0.803030
v -4.205016 0.377315 0.113833
v -3.482121 0.377313 0.303033
v -3.779691 0.534671 1.303025
v -3.416417 0.455479 0.803030
v -4.367469 0.534671 1.112041
v -4.367469 0.407532 0.494018
v -3.779691 0.534671 0.303034
vt 0.1376 0.1348
vt 0.1048 0.0768
vt 0.1880 0.0892
vt 0.0379 0.0108
vt 0.0058 0.0745
vt 0.2019 0.1718
vt 0.1272 0.2105
vt 0.0672 0.1518
vt 0.8815 0.5239
vt 0.8921 0.5930
vt 0.8392 0.5588
vt 0.3055 0.6100
vt 0.3055 0.6823
vt 0.2626 0.6444
vt 0.6967 0.8183
vt 0.6967 0.9381
vt 0.6557 0.8605
vt 0.7932 0.8135
vt 0.7944 0.8779
vt 0.7496 0.8627
vt 0.8921 0.7116
vt 0.8782 0.7603
vt 0.8435 0.7173
vt 0.2778 0.8058
vt 0.2266 0.7918
vt 0.2450 0.7271
vt 0.2516 0.5740
vt 0.6457 0.7919
vt 0.7483 0.8127
vt 0.8492 0.6402
vt 0.2331 0.6864
vt 0.2090 0.7140
vt 0.1890 0.6775
vt 0.2187 0.5639
vt 0.2082 0.6238
vt 0.1779 0.6070
vt 0.5770 0.5940
vt 0.6457 0.5524
vt 0.6052 0.6110
vt 0.5517 0.7054
vt 0.5549 0.6335
vt 0.5798 0.6924
vt 0.6540 0.7868
vt 0.5834 0.7305
vt 0.6501 0.7391
vt 0.6455 0.6702
vt 0.7517 0.2419
vt 0.7517 0.2790
vt 0.7185 0.2461
vt 0.6869 0.6109
vt 0.7185 0.5672
vt 0.7151 0.6897
vt 0.7185 0.7234
vt 0.8053 0.6822
vt 0.8240 0.6023
vt 0.1028 0.8597
vt 0.0675 0.8386
vt 0.1028 0.8189
vt 0.7185 0.8461
vt 0.7284 0.7944
vt 0.5406 0.5872
vt 0.6068 0.5369
vt 0.6187 0.8321
vt 0.6326 0.9009
vt 0.4899 0.8289
vt 0.4331 0.8591
vt 0.4567 0.8003
vt 0.4899 0.9126
vt 0.4462 0.9391
vt 0.6981 0.7919
vt 0.7471 0.7603
vt 0.4129 0.8851
vt 0.3807 0.8375
vt 0.4129 0.8058
vt 0.7944 0.7619
vt 0.7472 0.9462
vt 0.7884 0.9912
vt 0.6502 0.9441
vt 0.6837 1.0000
vt 0.0403 0.2548
vt 0.0000 0.1953
vt 0.1087 0.2819
vt 0.1756 0.2736
vt 0.2703 0.2058
vt 0.2703 0.0846
vt 0.2367 0.0267
vt 0.1680 0.0000
vt 0.1376 0.4168
vt 0.1048 0.3588
vt 0.1880 0.3711
vt 0.0379 0.2927
vt 0.0058 0.3564
vt 0.2019 0.4538
vt 0.1272 0.4924
vt 0.0672 0.4337
vt 0.7947 0.5239
vt 0.8053 0.5930
vt 0.7524 0.5588
vt 0.8461 0.0461
vt 0.8461 0.1184
vt 0.8032 0.0805
vt 0.6187 0.8183
vt 0.6187 0.9381
vt 0.5777 0.8605
vt 0.9667 0.8080
vt 0.9679 0.8724
vt 0.9231 0.8572
vt 0.8053 0.7116
vt 0.7914 0.7603
vt 0.7567 0.7173
vt 0.8185 0.2419
vt 0.7673 0.2279
vt 0.7856 0.1632
vt 0.7922 0.0101
vt 0.5677 0.7919
vt 0.9218 0.8072
vt 0.7625 0.6402
vt 0.7737 0.1225
vt 0.7496 0.1502
vt 0.7296 0.1136
vt 0.7593 0.0000
vt 0.7489 0.0600
vt 0.7185 0.0432
vt 0.5770 0.3390
vt 0.6457 0.2974
vt 0.6052 0.3560
vt 0.5517 0.4504
vt 0.5549 0.3785
vt 0.5798 0.4374
vt 0.6540 0.5318
vt 0.5834 0.4756
vt 0.6501 0.4841
vt 0.6455 0.4153
vt 0.8461 0.4935
vt 0.8725 0.4674
vt 0.8725 0.5139
vt 0.6869 0.3560
vt 0.7185 0.3122
vt 0.7151 0.4348
vt 0.7185 0.4684
vt 0.7185 0.6822
vt 0.7372 0.6023
vt 0.1385 0.8391
vt 0.1742 0.8189
vt 0.1742 0.8592
vt 0.8921 0.8406
vt 0.9019 0.7889
vt 0.5406 0.3323
vt 0.6068 0.2819
vt 0.5406 0.8321
vt 0.5546 0.9009
vt 0.2917 0.8344
vt 0.2348 0.8645
vt 0.2584 0.8058
vt 0.2917 0.9180
vt 0.2479 0.9446
vt 0.6981 0.5369
vt 0.9206 0.7548
vt 0.3807 0.8851
vt 0.3486 0.8375
vt 0.3807 0.8058
vt 0.9679 0.7564
vt 0.9207 0.9407
vt 0.9619 0.9857
vt 0.5722 0.9441
vt 0.6056 1.0000
vt 0.0403 0.5367
vt 0.0000 0.4772
vt 0.1087 0.5639
vt 0.1756 0.5555
vt 0.2703 0.4877
vt 0.2703 0.3665
vt 0.2367 0.3087
vt 0.1680 0.2819
vt 0.4079 0.4168
vt 0.3751 0.3588
vt 0.4583 0.3711
vt 0.3082 0.2927
vt 0.2761 0.3564
vt 0.4722 0.4538
vt 0.3975 0.4924
vt 0.3375 0.4337
vt 0.9223 0.0000
vt 0.9329 0.0691
vt 0.8800 0.0349
vt 0.8461 0.3280
vt 0.8461 0.4003
vt 0.8032 0.3625
vt 0.8921 0.7867
vt 0.8921 0.9065
vt 0.8511 0.8289
vt 0.9667 0.5770
vt 0.9679 0.6414
vt 0.9231 0.6263
vt 0.9329 0.1878
vt 0.9190 0.2365
vt 0.8843 0.1935
vt 0.8185 0.5239
vt 0.7673 0.5098
vt 0.7856 0.4451
vt 0.7922 0.2920
vt 0.8411 0.7603
vt 0.9218 0.5763
vt 0.8900 0.1163
vt 0.7737 0.4045
vt 0.7496 0.4321
vt 0.7296 0.3955
vt 0.7593 0.2819
vt 0.7489 0.3419
vt 0.7185 0.3251
vt 0.5770 0.0571
vt 0.6457 0.0155
vt 0.6052 0.0741
vt 0.5517 0.1685
vt 0.5549 0.0966
vt 0.5798 0.1555
vt 0.6540 0.2499
vt 0.5834 0.1936
vt 0.6501 0.2021
vt 0.6455 0.1333
vt 0.7849 0.2787
vt 0.7897 0.2419
vt 0.8184 0.2787
vt 0.6869 0.0740
vt 0.7185 0.0302
vt 0.7151 0.1528
vt 0.7185 0.1865
vt 0.8461 0.1583
vt 0.8648 0.0784
vt 0.1028 0.8391
vt 0.1385 0.8189
vt 0.1385 0.8592
vt 0.8921 0.6096
vt 0.9019 0.5579
vt 0.5406 0.0503
vt 0.6068 0.0000
vt 0.8140 0.8005
vt 0.8280 0.8694
vt 0.2348 0.8344
vt 0.1779 0.8645
vt 0.2016 0.8058
vt 0.2348 0.9180
vt 0.1911 0.9446
vt 0.6981 0.2550
vt 0.9206 0.5239
vt 0.5221 0.8797
vt 0.4899 0.8320
vt 0.5221 0.8003
vt 0.9679 0.5254
vt 0.9207 0.7098
vt 0.9619 0.7548
vt 0.8456 0.9125
vt 0.8790 0.9684
vt 0.3106 0.5367
vt 0.2703 0.4772
vt 0.3791 0.5639
vt 0.4459 0.5555
vt 0.5406 0.4877
vt 0.5406 0.3665
vt 0.5070 0.3087
vt 0.4383 0.2819
vt 0.4079 0.1348
vt 0.3751 0.0768
vt 0.4583 0.0892
vt 0.3082 0.0108
vt 0.2761 0.0745
vt 0.4722 0.1718
vt 0.3975 0.2105
vt 0.3375 0.1518
vt 0.5092 0.5639
vt 0.5198 0.6330
vt 0.4669 0.5988
vt 0.4331 0.6100
vt 0.4331 0.6823
vt 0.3902 0.6444
vt 1.0000 0.2629
vt 1.0000 0.3827
vt 0.9590 0.3050
vt 0.9207 0.2896
vt 0.9220 0.3540
vt 0.8772 0.3389
vt 0.5198 0.7517
vt 0.5059 0.8003
vt 0.4712 0.7573
vt 0.4054 0.8058
vt 0.3542 0.7918
vt 0.3726 0.7271
vt 0.3791 0.5740
vt 0.9490 0.2365
vt 0.8759 0.2888
vt 0.4770 0.6802
vt 0.3607 0.6864
vt 0.3366 0.7140
vt 0.3165 0.6775
vt 0.3463 0.5639
vt 0.3358 0.6238
vt 0.3055 0.6070
vt 0.0364 0.6209
vt 0.1051 0.5794
vt 0.0646 0.6379
vt 0.0111 0.7324
vt 0.0143 0.6605
vt 0.0392 0.7193
vt 0.1134 0.8138
vt 0.0428 0.7575
vt 0.1095 0.7660
vt 0.1049 0.6972
vt 0.7849 0.2419
vt 0.7849 0.2790
vt 0.7517 0.2461
vt 0.1463 0.6379
vt 0.1779 0.5941
vt 0.1745 0.7167
vt 0.1779 0.7504
vt 0.4331 0.7222
vt 0.4517 0.6423
vt 0.0675 0.8597
vt 0.0322 0.8386
vt 0.0675 0.8189
vt 0.8461 0.3222
vt 0.8560 0.2705
vt 0.0000 0.6142
vt 0.0662 0.5639
vt 0.9220 0.2767
vt 0.9359 0.3455
vt 0.3486 0.8344
vt 0.2917 0.8645
vt 0.3153 0.8058
vt 0.3486 0.9180
vt 0.3048 0.9446
vt 0.1575 0.8189
vt 0.8747 0.2365
vt 0.0322 0.8982
vt 0.0000 0.8506
vt 0.0322 0.8189
vt 0.9220 0.2380
vt 0.8748 0.4224
vt 0.9160 0.4674
vt 0.9535 0.3886
vt 0.9870 0.4446
vt 0.3106 0.2548
vt 0.2703 0.1953
vt 0.3791 0.2819
vt 0.4459 0.2736
vt 0.5406 0.2058
vt 0.5406 0.0846
vt 0.5070 0.0267
vt 0.4383 0.0000
vn 0.0209 -0.9998 0.0006
vn 0.0192 -0.9994 0.0292
vn -0.0535 -0.9982 -0.0283
vn -0.0568 -0.9981 0.0258
vn 0.0406 -0.9991 -0.0072
vn 0.9253 0.3791 -0.0099
vn 0.0931 0.1442 0.9852
vn -0.8942 -0.0500 0.4449
vn -0.5552 0.0404 -0.8308
vn 0.4825 0.2154 -0.8490
vn 0.5125 0.6216 0.5924
vn -0.2776 0.4396 0.8542
vn -0.9178 0.3971 0.0000
vn 0.0158 0.5891 -0.8079
vn 0.7654 0.3240 -0.5561
vn 0.4507 0.7571 0.4730
vn -0.0913 0.7339 0.6731
vn -0.2829 0.9109 -0.3003
vn 0.0427 0.7189 -0.6938
vn 0.3839 0.9033 -0.1917
vn 0.2999 0.9516 -0.0672
vn 0.4584 0.8669 -0.1958
vn 0.3912 0.7398 -0.5474
vn -0.2821 0.9258 -0.2518
vn -0.2658 0.9454 -0.1887
vn -0.3842 0.8928 -0.2351
vn -0.3266 0.9258 -0.1904
vn -0.2111 0.9574 -0.1970
vn -0.4869 0.8390 0.2430
vn -0.0616 0.9799 0.1895
vn -0.2353 0.6482 0.7242
vn -0.2454 0.6750 0.6958
vn 0.2999 0.9516 0.0672
vn 0.4979 0.8364 0.2293
vn 0.3819 0.8986 0.2161
vn 0.4792 0.8298 -0.2861
vn 0.4912 0.7946 -0.3569
vn 0.2635 0.8365 -0.4805
vn -0.0185 0.4273 -0.9039
vn 0.0173 0.4620 -0.8867
vn -0.4314 0.8335 -0.3451
vn -0.4801 0.7829 -0.3957
vn -0.9081 0.4187 0.0000
vn -0.6748 0.6884 0.2659
vn -0.1233 0.8659 0.4847
vn -0.1501 0.8741 0.4620
vn -0.0856 0.8953 0.4372
vn 0.5493 0.6680 0.5021
vn 0.4834 0.6737 0.5589
vn 0.4561 0.8397 0.2948
vn -0.0177 0.4259 -0.9046
vn -0.0150 0.6397 -0.7685
vn -0.0473 0.6238 -0.7801
vn -0.4610 0.8218 -0.3349
vn -0.7995 0.1533 -0.5808
vn -0.8831 -0.0729 -0.4635
vn -0.7494 0.3767 0.5445
vn -0.7884 0.2245 0.5728
vn -0.5490 0.1450 0.8231
vn 0.4983 0.3366 0.7990
vn 0.4767 0.4340 0.7645
vn 0.4567 0.4527 0.7658
vn 0.9263 0.3767 0.0000
vn 0.9286 0.3712 0.0000
vn 0.9152 -0.0112 -0.4028
vn -0.0145 -0.9998 0.0119
vn 0.0381 -0.9993 0.0007
vn -0.0327 -0.9981 -0.0514
vn -0.0014 -0.9983 -0.0581
vn -0.0464 -0.9984 0.0334
vn 0.0044 -0.9997 0.0226
vn 0.0044 -0.9998 -0.0214
vn -0.0482 -0.9983 -0.0321
vn 0.0012 -0.9985 0.0546
vn -0.0156 -0.9998 0.0113
vn -0.0024 -0.9999 -0.0167
vn 0.0326 -0.9993 -0.0167
vn -0.0240 -0.9985 0.0496
vn 0.0241 -0.9997 0.0105
vn 0.0253 -0.9996 0.0108
usemtl Material
s off
f 1/1/1 14/2/1 13/3/1
f 2/4/2 14/2/2 16/5/2
f 1/1/3 13/3/3 18/6/3
f 1/1/4 18/6/4 20/7/4
f 1/1/5 20/7/5 17/8/5
f 2/9/6 16/10/6 23/11/6
f 3/12/7 15/13/7 25/14/7
f 4/15/8 19/16/8 27/17/8
f 5/18/9 21/19/9 29/20/9
f 6/21/10 22/22/10 31/23/10
f 2/24/11 23/25/11 26/26/11
f 3/12/12 25/14/12 28/27/12
f 4/15/13 27/17/13 30/28/13
f 5/18/14 29/20/14 32/29/14
f 6/21/15 31/23/15 24/30/15
f 7/31/16 33/32/16 38/33/16
f 8/34/17 34/35/17 40/36/17
f 9/37/18 35/38/18 41/39/18
f 10/40/19 36/41/19 42/42/19
f 11/43/20 37/44/20 39/45/20
f 39/45/21 42/42/21 12/46/21
f 39/45/22 37/44/22 42/42/22
f 37/47/23 10/48/23 42/49/23
f 42/42/24 41/39/24 12/46/24
f 42/42/25 36/41/25 41/39/25
f 36/41/26 9/37/26 41/39/26
f 41/39/27 40/50/27 12/46/27
f 41/39/28 35/38/28 40/50/28
f 35/38/29 8/51/29 40/50/29
f 40/50/30 38/52/30 12/46/30
f 40/36/31 34/35/31 38/33/31
f 34/35/32 7/31/32 38/33/32
f 38/52/33 39/45/33 12/46/33
f 38/52/34 33/53/34 39/45/34
f 33/53/35 11/43/35 39/45/35
f 24/30/36 37/54/36 11/55/36
f 24/30/37 31/23/37 37/54/37
f 31/56/38 10/57/38 37/58/38
f 32/29/39 36/59/39 10/60/39
f 32/29/40 29/20/40 36/59/40
f 29/61/41 9/37/41 36/41/41
f 30/62/42 35/38/42 9/37/42
f 30/28/43 27/17/43 35/63/43
f 27/17/44 8/64/44 35/63/44
f 28/65/45 34/66/45 8/67/45
f 28/65/46 25/68/46 34/66/46
f 25/68/47 7/69/47 34/66/47
f 26/26/48 33/32/48 7/31/48
f 26/26/49 23/25/49 33/32/49
f 23/70/50 11/43/50 33/53/50
f 31/71/51 32/29/51 10/60/51
f 31/72/52 22/73/52 32/74/52
f 22/75/53 5/18/53 32/29/53
f 29/61/54 30/62/54 9/37/54
f 29/20/55 21/19/55 30/76/55
f 21/19/56 4/77/56 30/76/56
f 27/17/57 28/78/57 8/64/57
f 27/17/58 19/16/58 28/78/58
f 19/16/59 3/79/59 28/78/59
f 25/14/60 26/26/60 7/31/60
f 25/14/61 15/13/61 26/26/61
f 15/13/62 2/24/62 26/26/62
f 23/11/63 24/30/63 11/55/63
f 23/11/64 16/10/64 24/30/64
f 16/10/65 6/21/65 24/30/65
f 17/8/66 22/80/66 6/81/66
f 17/8/67 20/7/67 22/80/67
f 20/7/68 5/82/68 22/80/68
f 20/7/69 21/83/69 5/82/69
f 20/7/70 18/6/70 21/83/70
f 18/6/71 4/84/71 21/83/71
f 18/6/72 19/85/72 4/84/72
f 18/6/73 13/3/73 19/85/73
f 13/3/74 3/86/74 19/85/74
f 16/5/75 17/8/75 6/81/75
f 16/5/76 14/2/76 17/8/76
f 14/2/77 1/1/77 17/8/77
f 13/3/78 15/87/78 3/86/78
f 13/3/79 14/2/79 15/87/79
f 14/2/80 2/4/80 15/87/80
f 43/88/1 56/89/1 55/90/1
f 44/91/2 56/89/2 58/92/2
f 43/88/3 55/90/3 60/93/3
f 43/88/4 60/93/4 62/94/4
f 43/88/5 62/94/5 59/95/5
f 44/96/6 58/97/6 65/98/6
f 45/99/7 57/100/7 67/101/7
f 46/102/8 61/103/8 69/104/8
f 47/105/9 63/106/9 71/107/9
f 48/108/10 64/109/10 73/110/10
f 44/111/11 65/112/11 68/113/11
f 45/99/12 67/101/12 70/114/12
f 46/102/13 69/104/13 72/115/13
f 47/105/14 71/107/14 74/116/14
f 48/108/15 73/110/15 66/117/15
f 49/118/16 75/119/16 80/120/16
f 50/121/17 76/122/17 82/123/17
f 51/124/18 77/125/18 83/126/18
f 52/127/19 78/128/19 84/129/19
f 53/130/20 79/131/20 81/132/20
f 81/132/21 84/129/21 54/133/21
f 81/132/22 79/131/22 84/129/22
f 79/134/23 52/135/23 84/136/23
f 84/129/24 83/126/24 54/133/24
f 84/129/25 78/128/25 83/126/25
f 78/128/26 51/124/26 83/126/26
f 83/126/27 82/137/27 54/133/27
f 83/126/28 77/125/28 82/137/28
f 77/125/29 50/138/29 82/137/29
f 82/137/30 80/139/30 54/133/30
f 82/123/31 76/122/31 80/120/31
f 76/122/32 49/118/32 80/120/32
f 80/139/33 81/132/33 54/133/33
f 80/139/34 75/140/34 81/132/34
f 75/140/35 53/130/35 81/132/35
f 66/117/36 79/141/36 53/142/36
f 66/117/37 73/110/37 79/141/37
f 73/143/38 52/144/38 79/145/38
f 74/116/39 78/146/39 52/147/39
f 74/116/40 71/107/40 78/146/40
f 71/148/41 51/124/41 78/128/41
f 72/149/42 77/125/42 51/124/42
f 72/115/43 69/104/43 77/150/43
f 69/104/44 50/151/44 77/150/44
f 70/152/45 76/153/45 50/154/45
f 70/152/46 67/155/46 76/153/46
f 67/155/47 49/156/47 76/153/47
f 68/113/48 75/119/48 49/118/48
f 68/113/49 65/112/49 75/119/49
f 65/157/50 53/130/50 75/140/50
f 73/158/51 74/116/51 52/147/51
f 73/159/52 64/160/52 74/161/52
f 64/162/53 47/105/53 74/116/53
f 71/148/54 72/149/54 51/124/54
f 71/107/55 63/106/55 72/163/55
f 63/106/56 46/164/56 72/163/56
f 69/104/57 70/165/57 50/151/57
f 69/104/58 61/103/58 70/165/58
f 61/103/59 45/166/59 70/165/59
f 67/101/60 68/113/60 49/118/60
f 67/101/61 57/100/61 68/113/61
f 57/100/62 44/111/62 68/113/62
f 65/98/63 66/117/63 53/142/63
f 65/98/64 58/97/64 66/117/64
f 58/97/65 48/108/65 66/117/65
f 59/95/66 64/167/66 48/168/66
f 59/95/67 62/94/67 64/167/67
f 62/94/68 47/169/68 64/167/68
f 62/94/69 63/170/69 47/169/69
f 62/94/70 60/93/70 63/170/70
f 60/93/71 46/171/71 63/170/71
f 60/93/72 61/172/72 46/171/72
f 60/93/73 55/90/73 61/172/73
f 55/90/74 45/173/74 61/172/74
f 58/92/75 59/95/75 48/168/75
f 58/92/76 56/89/76 59/95/76
f 56/89/77 43/88/77 59/95/77
f 55/90/78 57/174/78 45/173/78
f 55/90/79 56/89/79 57/174/79
f 56/89/80 44/91/80 57/174/80
f 85/175/1 98/176/1 97/177/1
f 86/178/2 98/176/2 100/179/2
f 85/175/3 97/177/3 102/180/3
f 85/175/4 102/180/4 104/181/4
f 85/175/5 104/181/5 101/182/5
f 86/183/6 100/184/6 107/185/6
f 87/186/7 99/187/7 109/188/7
f 88/189/8 103/190/8 111/191/8
f 89/192/9 105/193/9 113/194/9
f 90/195/10 106/196/10 115/197/10
f 86/198/11 107/199/11 110/200/11
f 87/186/12 109/188/12 112/201/12
f 88/189/13 111/191/13 114/202/13
f 89/192/14 113/194/14 116/203/14
f 90/195/15 115/197/15 108/204/15
f 91/205/16 117/206/16 122/207/16
f 92/208/17 118/209/17 124/210/17
f 93/211/18 119/212/18 125/213/18
f 94/214/19 120/215/19 126/216/19
f 95/217/20 121/218/20 123/219/20
f 123/219/21 126/216/21 96/220/21
f 123/219/22 121/218/22 126/216/22
f 121/221/23 94/222/23 126/223/23
f 126/216/24 125/213/24 96/220/24
f 126/216/25 120/215/25 125/213/25
f 120/215/26 93/211/26 125/213/26
f 125/213/27 124/224/27 96/220/27
f 125/213/28 119/212/28 124/224/28
f 119/212/29 92/225/29 124/224/29
f 124/224/30 122/226/30 96/220/30
f 124/210/31 118/209/31 122/207/31
f 118/209/32 91/205/32 122/207/32
f 122/226/33 123/219/33 96/220/33
f 122/226/34 117/227/34 123/219/34
f 117/227/35 95/217/35 123/219/35
f 108/204/36 121/228/36 95/229/36
f 108/204/37 115/197/37 121/228/37
f 115/230/38 94/231/38 121/232/38
f 116/203/39 120/233/39 94/234/39
f 116/203/40 113/194/40 120/233/40
f 113/235/41 93/211/41 120/215/41
f 114/236/42 119/212/42 93/211/42
f 114/202/43 111/191/43 119/237/43
f 111/191/44 92/238/44 119/237/44
f 112/239/45 118/240/45 92/241/45
f 112/239/46 109/242/46 118/240/46
f 109/242/47 91/243/47 118/240/47
f 110/200/48 117/206/48 91/205/48
f 110/200/49 107/199/49 117/206/49
f 107/244/50 95/217/50 117/227/50
f 115/245/51 116/203/51 94/234/51
f 115/246/52 106/247/52 116/248/52
f 106/249/53 89/192/53 116/203/53
f 113/235/54 114/236/54 93/211/54
f 113/194/55 105/193/55 114/250/55
f 105/193/56 88/251/56 114/250/56
f 111/191/57 112/252/57 92/238/57
f 111/191/58 103/190/58 112/252/58
f 103/190/59 87/253/59 112/252/59
f 109/188/60 110/200/60 91/205/60
f 109/188/61 99/187/61 110/200/61
f 99/187/62 86/198/62 110/200/62
f 107/185/63 108/204/63 95/229/63
f 107/185/64 100/184/64 108/204/64
f 100/184/65 90/195/65 108/204/65
f 101/182/66 106/254/66 90/255/66
f 101/182/67 104/181/67 106/254/67
f 104/181/68 89/256/68 106/254/68
f 104/181/69 105/257/69 89/256/69
f 104/181/70 102/180/70 105/257/70
f 102/180/71 88/258/71 105/257/71
f 102/180/72 103/259/72 88/258/72
f 102/180/73 97/177/73 103/259/73
f 97/177/74 87/260/74 103/259/74
f 100/179/75 101/182/75 90/255/75
f 100/179/76 98/176/76 101/182/76
f 98/176/77 85/175/77 101/182/77
f 97/177/78 99/261/78 87/260/78
f 97/177/79 98/176/79 99/261/79
f 98/176/80 86/178/80 99/261/80
f 127/262/1 140/263/1 139/264/1
f 128/265/2 140/263/2 142/266/2
f 127/262/3 139/264/3 144/267/3
f 127/262/4 144/267/4 146/268/4
f 127/262/5 146/268/5 143/269/5
f 128/270/6 142/271/6 149/272/6
f 129/273/7 141/274/7 151/275/7
f 130/276/8 145/277/8 153/278/8
f 131/279/9 147/280/9 155/281/9
f 132/282/10 148/283/10 157/284/10
f 128/285/11 149/286/11 152/287/11
f 129/273/12 151/275/12 154/288/12
f 130/276/13 153/278/13 156/289/13
f 131/279/14 155/281/14 158/290/14
f 132/282/15 157/284/15 150/291/15
f 133/292/16 159/293/16 164/294/16
f 134/295/17 160/296/17 166/297/17
f 135/298/18 161/299/18 167/300/18
f 136/301/19 162/302/19 168/303/19
f 137/304/20 163/305/20 165/306/20
f 165/306/21 168/303/21 138/307/21
f 165/306/22 163/305/22 168/303/22
f 163/308/23 136/309/23 168/310/23
f 168/303/24 167/300/24 138/307/24
f 168/303/25 162/302/25 167/300/25
f 162/302/26 135/298/26 167/300/26
f 167/300/27 166/311/27 138/307/27
f 167/300/28 161/299/28 166/311/28
f 161/299/29 134/312/29 166/311/29
f 166/311/30 164/313/30 138/307/30
f 166/297/31 160/296/31 164/294/31
f 160/296/32 133/292/32 164/294/32
f 164/313/33 165/306/33 138/307/33
f 164/313/34 159/314/34 165/306/34
f 159/314/35 137/304/35 165/306/35
f 150/291/36 163/315/36 137/316/36
f 150/291/37 157/284/37 163/315/37
f 157/317/38 136/318/38 163/319/38
f 158/290/39 162/320/39 136/321/39
f 158/290/40 155/281/40 162/320/40
f 155/322/41 135/298/41 162/302/41
f 156/323/42 161/299/42 135/298/42
f 156/289/43 153/278/43 161/324/43
f 153/278/44 134/325/44 161/324/44
f 154/326/45 160/327/45 134/328/45
f 154/326/46 151/329/46 160/327/46
f 151/329/47 133/330/47 160/327/47
f 152/287/48 159/293/48 133/292/48
f 152/287/49 149/286/49 159/293/49
f 149/331/50 137/304/50 159/314/50
f 157/332/51 158/290/51 136/321/51
f 157/333/52 148/334/52 158/335/52
f 148/336/53 131/279/53 158/290/53
f 155/322/54 156/323/54 135/298/54
f 155/281/55 147/280/55 156/337/55
f 147/280/56 130/338/56 156/337/56
f 153/278/57 154/339/57 134/325/57
f 153/278/58 145/277/58 154/339/58
f 145/277/59 129/340/59 154/339/59
f 151/275/60 152/287/60 133/292/60
f 151/275/61 141/274/61 152/287/61
f 141/274/62 128/285/62 152/287/62
f 149/272/63 150/291/63 137/316/63
f 149/272/64 142/271/64 150/291/64
f 142/271/65 132/282/65 150/291/65
f 143/269/66 148/341/66 132/342/66
f 143/269/67 146/268/67 148/341/67
f 146/268/68 131/343/68 148/341/68
f 146/268/69 147/344/69 131/343/69
f 146/268/70 144/267/70 147/344/70
f 144/267/71 130/345/71 147/344/71
f 144/267/72 145/346/72 130/345/72
f 144/267/73 139/264/73 145/346/73
f 139/264/74 129/347/74 145/346/74
f 142/266/75 143/269/75 132/342/75
f 142/266/76 140/263/76 143/269/76
f 140/263/77 127/262/77 143/269/77
f 139/264/78 141/348/78 129/347/78
f 139/264/79 140/263/79 141/348/79
f 140/263/80 128/265/80 141/348/80
